<svg id="Layer_1" enable-background="new 0 0 512 512" height="512" viewBox="0 0 512 512" width="512" xmlns="http://www.w3.org/2000/svg"><g><path d="m488 113.013v-25.013c0-4.418-3.582-8-8-8h-80c-4.418 0-8 3.582-8 8v24h-11.056l-31.156-62.312c-5.455-10.91-16.422-17.688-28.621-17.688h-82.334c-12.199 0-23.167 6.778-28.622 17.688l-18.368 36.737c-.732-3.664-3.964-6.425-7.843-6.425-22.552 0-99.846 0-128 0-4.418 0-8 3.582-8 8v24h-16c-17.645 0-32 14.355-32 32v304c0 17.645 14.355 32 32 32h448c17.645 0 32-14.355 32-32 0-33.823 0-251.82 0-304 0-14.883-10.214-27.426-24-30.987zm8 30.987v64c-12.161 0-81.511 0-92.13 0-5.887-8.262-12.584-15.906-19.965-22.831.14-.954.095 2.861.095-57.169h96c8.822 0 16 7.178 16 16zm-216 16c74.991 0 136 61.01 136 136s-61.009 136-136 136-136-61.01-136-136 61.009-136 136-136zm-88-32h176v44.13c-52.263-37.236-122.946-37.8-176 0zm216-32h64v16h-64zm-183.478-39.155c2.728-5.456 8.211-8.845 14.311-8.845h82.334c6.1 0 11.583 3.389 14.311 8.845l27.578 55.155h-166.112zm-48.522 55.155h-64v-16h64zm-112-16h32v16h-32zm-48 48c0-8.822 7.178-16 16-16h144c0 60.127-.045 56.216.095 57.169-7.381 6.924-14.079 14.568-19.965 22.831h-140.13zm480 304c0 8.822-7.178 16-16 16h-448c-8.822 0-16-7.178-16-16v-224h130.165c-54.151 100.252 18.514 224 133.835 224 115.316 0 187.989-123.743 133.835-224h82.165z"/><path d="m280 416c66.168 0 120-53.832 120-120s-53.832-120-120-120-120 53.832-120 120 53.832 120 120 120zm0-224c57.346 0 104 46.654 104 104s-46.654 104-104 104-104-46.654-104-104 46.654-104 104-104z"/><path d="m416 416c0 17.645 14.355 32 32 32s32-14.355 32-32-14.355-32-32-32-32 14.355-32 32zm32-16c8.822 0 16 7.178 16 16s-7.178 16-16 16-16-7.178-16-16 7.178-16 16-16z"/><path d="m160 168c0-13.233-10.766-24-24-24s-24 10.767-24 24 10.766 24 24 24 24-10.767 24-24zm-24 8c-4.411 0-8-3.589-8-8s3.589-8 8-8 8 3.589 8 8-3.589 8-8 8z"/><path d="m472 144h-64c-4.418 0-8 3.582-8 8s3.582 8 8 8h64c4.418 0 8-3.582 8-8s-3.582-8-8-8z"/></g></svg>